<svg width="17" height="16" viewBox="0 0 17 16" fill="none" xmlns="http://www.w3.org/2000/svg">
<path fill-rule="evenodd" clip-rule="evenodd" d="M8.83273 9.0985C8.33098 9.0985 7.83073 8.93275 7.41223 8.60125L4.04848 5.88925C3.80623 5.69425 3.76873 5.3395 3.96298 5.098C4.15873 4.85725 4.51273 4.819 4.75423 5.01325L8.11498 7.72225C8.53723 8.05675 9.13198 8.05675 9.55723 7.71925L12.8842 5.01475C13.1257 4.8175 13.4797 4.855 13.6762 5.0965C13.872 5.33725 13.8352 5.69125 13.5945 5.88775L10.2615 8.59675C9.83998 8.93125 9.33598 9.0985 8.83273 9.0985Z" fill="#001833"/>
<mask id="mask0_20_120" style="mask-type:luminance" maskUnits="userSpaceOnUse" x="0" y="0" width="17" height="16">
<path fill-rule="evenodd" clip-rule="evenodd" d="M0.75 0.5H16.8749V15.125H0.75V0.5Z" fill="white"/>
</mask>
<g mask="url(#mask0_20_120)">
<path fill-rule="evenodd" clip-rule="evenodd" d="M5.12913 14H12.4941C12.4956 13.9985 12.5016 14 12.5061 14C13.3619 14 14.1209 13.694 14.7029 13.1128C15.3786 12.44 15.7499 11.4732 15.7499 10.391V5.24C15.7499 3.14525 14.3804 1.625 12.4941 1.625H5.13063C3.24438 1.625 1.87488 3.14525 1.87488 5.24V10.391C1.87488 11.4732 2.24688 12.44 2.92188 13.1128C3.50388 13.694 4.26363 14 5.11863 14H5.12913ZM5.11638 15.125C3.95913 15.125 2.92563 14.705 2.12763 13.91C1.23888 13.0235 0.749878 11.774 0.749878 10.391V5.24C0.749878 2.53775 2.63313 0.5 5.13063 0.5H12.4941C14.9916 0.5 16.8749 2.53775 16.8749 5.24V10.391C16.8749 11.774 16.3859 13.0235 15.4971 13.91C14.6999 14.7042 13.6656 15.125 12.5061 15.125H12.4941H5.13063H5.11638Z" fill="#001833"/>
</g>
</svg>
